HIERARCHY
ROOT Hips
{
	OFFSET 0.000000 83.214638 0.000000
	CHANNELS 6 Xposition Yposition Zposition Xrotation Yrotation Zrotation
	JOINT Pelvis
	{
		OFFSET 0.000000 0.000000 0.000000
		CHANNELS 3 Xrotation Yrotation Zrotation
		JOINT LeftUpLeg
		{
			OFFSET 8.479700 -4.795502 -0.379100
			CHANNELS 3 Xrotation Yrotation Zrotation
			JOINT LeftLeg
			{
				OFFSET 0.024144 -32.555107 0.112900
				CHANNELS 3 Xrotation Yrotation Zrotation
				JOINT LeftFoot
				{
					OFFSET -0.024144 -32.638630 -3.012600
					CHANNELS 3 Xrotation Yrotation Zrotation
					JOINT LeftToeBase
					{
						OFFSET 0.970200 -13.225400 11.864200
						CHANNELS 3 Xrotation Yrotation Zrotation
						End Site
						{
							OFFSET 0.000000 12.319262 0.000000
						}
					}
					JOINT LFootTongue
					{
						OFFSET 1.142400 -1.059800 6.665200
						CHANNELS 3 Xrotation Yrotation Zrotation
						End Site
						{
							OFFSET 0.000000 12.319262 0.000000
						}
					}
				}
				JOINT LeftPantLeg
				{
					OFFSET 0.918482 -16.533964 -2.284700
					CHANNELS 3 Xrotation Yrotation Zrotation
					End Site
					{
						OFFSET 0.350399 24.744368 0.000000
					}
				}
			}
		}
		JOINT RightUpLeg
		{
			OFFSET -8.479700 -4.795502 -0.379100
			CHANNELS 3 Xrotation Yrotation Zrotation
			JOINT RightLeg
			{
				OFFSET -0.023144 -32.555092 0.112900
				CHANNELS 3 Xrotation Yrotation Zrotation
				JOINT RightFoot
				{
					OFFSET 0.023144 -32.638641 -3.012700
					CHANNELS 3 Xrotation Yrotation Zrotation
					JOINT RightToeBase
					{
						OFFSET -0.970200 -13.225400 11.864200
						CHANNELS 3 Xrotation Yrotation Zrotation
						End Site
						{
							OFFSET 0.000000 12.319244 0.000000
						}
					}
					JOINT RFootTongue
					{
						OFFSET -1.142200 -1.059800 6.665200
						CHANNELS 3 Xrotation Yrotation Zrotation
						End Site
						{
							OFFSET 0.000000 12.319243 0.000000
						}
					}
				}
				JOINT RightPantLeg
				{
					OFFSET -0.919482 -16.533978 -2.284800
					CHANNELS 3 Xrotation Yrotation Zrotation
					End Site
					{
						OFFSET -0.350400 24.744419 0.000000
					}
				}
			}
		}
	}
	JOINT Spine
	{
		OFFSET 0.000000 7.722000 1.166200
		CHANNELS 3 Xrotation Yrotation Zrotation
		JOINT Spine1
		{
			OFFSET 0.000000 12.024101 0.248800
			CHANNELS 3 Xrotation Yrotation Zrotation
			JOINT Spine2
			{
				OFFSET 0.000000 11.502998 -0.491200
				CHANNELS 3 Xrotation Yrotation Zrotation
				JOINT Neck
				{
					OFFSET 0.000000 18.430702 -3.123100
					CHANNELS 3 Xrotation Yrotation Zrotation
					JOINT Head
					{
						OFFSET 0.000000 9.051102 1.034000
						CHANNELS 3 Xrotation Yrotation Zrotation
						JOINT HairB
						{
							OFFSET 0.208400 24.786102 24.822300
							CHANNELS 3 Xrotation Yrotation Zrotation
							End Site
							{
								OFFSET 0.000000 32.263779 0.000000
							}
						}
						JOINT HairA
						{
							OFFSET -7.081100 24.428299 23.196600
							CHANNELS 3 Xrotation Yrotation Zrotation
							End Site
							{
								OFFSET 0.000000 32.263779 0.000000
							}
						}
						JOINT Hat
						{
							OFFSET 16.728800 15.048294 -15.439601
							CHANNELS 3 Xrotation Yrotation Zrotation
							End Site
							{
								OFFSET 0.000000 32.263779 0.000000
							}
						}
					}
				}
				JOINT LeftShoulder
				{
					OFFSET 6.197800 13.665199 -4.064700
					CHANNELS 3 Xrotation Yrotation Zrotation
					JOINT LeftArm
					{
						OFFSET 7.778100 -0.187103 -1.709300
						CHANNELS 3 Xrotation Yrotation Zrotation
						JOINT LeftForeArm
						{
							OFFSET 22.049376 0.000000 0.000000
							CHANNELS 3 Xrotation Yrotation Zrotation
							JOINT LeftHand
							{
								OFFSET 23.009392 0.000000 0.000000
								CHANNELS 3 Xrotation Yrotation Zrotation
								JOINT LeftHandThumb1
								{
									OFFSET 3.507191 -2.063065 3.133727
									CHANNELS 3 Xrotation Yrotation Zrotation
									JOINT LeftHandThumb2
									{
										OFFSET 3.101337 -1.790558 1.790558
										CHANNELS 3 Xrotation Yrotation Zrotation
										JOINT LeftHandThumb3
										{
											OFFSET 3.058640 -1.765907 1.765906
											CHANNELS 3 Xrotation Yrotation Zrotation
											End Site
											{
												OFFSET -0.415260 3.926476 -0.049563
											}
										}
									}
								}
								JOINT LeftHandIndex1
								{
									OFFSET 11.334419 -0.901459 3.706815
									CHANNELS 3 Xrotation Yrotation Zrotation
									JOINT LeftHandIndex2
									{
										OFFSET 3.283112 0.000000 0.000000
										CHANNELS 3 Xrotation Yrotation Zrotation
										JOINT LeftHandIndex3
										{
											OFFSET 3.323853 0.000000 0.000000
											CHANNELS 3 Xrotation Yrotation Zrotation
											End Site
											{
												OFFSET -1.135597 3.097809 0.402452
											}
										}
									}
								}
								JOINT LeftHandMiddle1
								{
									OFFSET 11.335861 0.000000 0.000000
									CHANNELS 3 Xrotation Yrotation Zrotation
									JOINT LeftHandMiddle2
									{
										OFFSET 3.410492 0.000000 0.000000
										CHANNELS 3 Xrotation Yrotation Zrotation
										JOINT LeftHandMiddle3
										{
											OFFSET 3.312172 0.000000 0.000000
											CHANNELS 3 Xrotation Yrotation Zrotation
											End Site
											{
												OFFSET -1.150200 3.080154 0.400270
											}
										}
									}
								}
								JOINT LeftHandRing1
								{
									OFFSET 11.514786 -0.013176 -3.003090
									CHANNELS 3 Xrotation Yrotation Zrotation
									JOINT LeftHandRing2
									{
										OFFSET 3.053307 0.000000 0.000000
										CHANNELS 3 Xrotation Yrotation Zrotation
										JOINT LeftHandRing3
										{
											OFFSET 3.295807 0.000000 0.000000
											CHANNELS 3 Xrotation Yrotation Zrotation
											End Site
											{
												OFFSET -1.281006 3.013344 0.375733
											}
										}
									}
								}
								JOINT LeftHandPinky1
								{
									OFFSET 10.518692 -0.960396 -5.730441
									CHANNELS 3 Xrotation Yrotation Zrotation
									JOINT LeftHandPinky2
									{
										OFFSET 2.861649 0.000000 0.000000
										CHANNELS 3 Xrotation Yrotation Zrotation
										JOINT LeftHandPinky3
										{
											OFFSET 2.863380 0.000000 0.000000
											CHANNELS 3 Xrotation Yrotation Zrotation
											End Site
											{
												OFFSET -0.843597 2.711159 0.369971
											}
										}
									}
								}
							}
							JOINT LSleeve
							{
								OFFSET 6.676277 -0.344902 -1.011730
								CHANNELS 3 Xrotation Yrotation Zrotation
								End Site
								{
									OFFSET 0.000000 14.885353 0.000000
								}
							}
						}
					}
				}
				JOINT RightShoulder
				{
					OFFSET -6.197800 13.665199 -4.064700
					CHANNELS 3 Xrotation Yrotation Zrotation
					JOINT RightArm
					{
						OFFSET -7.778100 -0.187103 -1.709300
						CHANNELS 3 Xrotation Yrotation Zrotation
						JOINT RightForeArm
						{
							OFFSET -22.049376 0.000000 0.000000
							CHANNELS 3 Xrotation Yrotation Zrotation
							JOINT RightHand
							{
								OFFSET -23.009392 0.000000 0.000000
								CHANNELS 3 Xrotation Yrotation Zrotation
								JOINT RightHandThumb1
								{
									OFFSET -3.507191 -2.063065 3.133727
									CHANNELS 3 Xrotation Yrotation Zrotation
									JOINT RightHandThumb2
									{
										OFFSET -3.101337 -1.790558 1.790558
										CHANNELS 3 Xrotation Yrotation Zrotation
										JOINT RightHandThumb3
										{
											OFFSET -3.058640 -1.765907 1.765906
											CHANNELS 3 Xrotation Yrotation Zrotation
											End Site
											{
												OFFSET 0.415260 3.926476 -0.049563
											}
										}
									}
								}
								JOINT RightHandIndex1
								{
									OFFSET -11.334419 -0.901459 3.706815
									CHANNELS 3 Xrotation Yrotation Zrotation
									JOINT RightHandIndex2
									{
										OFFSET -3.283112 0.000000 0.000000
										CHANNELS 3 Xrotation Yrotation Zrotation
										JOINT RightHandIndex3
										{
											OFFSET -3.323853 0.000000 0.000000
											CHANNELS 3 Xrotation Yrotation Zrotation
											End Site
											{
												OFFSET 1.135597 3.097809 0.402452
											}
										}
									}
								}
								JOINT RightHandMiddle1
								{
									OFFSET -11.335861 0.000000 0.000000
									CHANNELS 3 Xrotation Yrotation Zrotation
									JOINT RightHandMiddle2
									{
										OFFSET -3.410492 0.000000 0.000000
										CHANNELS 3 Xrotation Yrotation Zrotation
										JOINT RightHandMiddle3
										{
											OFFSET -3.312172 0.000000 0.000000
											CHANNELS 3 Xrotation Yrotation Zrotation
											End Site
											{
												OFFSET 1.150200 3.080154 0.400270
											}
										}
									}
								}
								JOINT RightHandRing1
								{
									OFFSET -11.514786 -0.013176 -3.003090
									CHANNELS 3 Xrotation Yrotation Zrotation
									JOINT RightHandRing2
									{
										OFFSET -3.053307 0.000000 0.000000
										CHANNELS 3 Xrotation Yrotation Zrotation
										JOINT RightHandRing3
										{
											OFFSET -3.295807 0.000000 0.000000
											CHANNELS 3 Xrotation Yrotation Zrotation
											End Site
											{
												OFFSET 1.281006 3.013344 0.375733
											}
										}
									}
								}
								JOINT RightHandPinky1
								{
									OFFSET -10.518692 -0.960396 -5.730441
									CHANNELS 3 Xrotation Yrotation Zrotation
									JOINT RightHandPinky2
									{
										OFFSET -2.861649 0.000000 0.000000
										CHANNELS 3 Xrotation Yrotation Zrotation
										JOINT RightHandPinky3
										{
											OFFSET -2.863380 0.000000 0.000000
											CHANNELS 3 Xrotation Yrotation Zrotation
											End Site
											{
												OFFSET 0.843597 2.711159 0.369971
											}
										}
									}
								}
							}
							JOINT RSleeve
							{
								OFFSET -6.676277 -0.344902 -1.011730
								CHANNELS 3 Xrotation Yrotation Zrotation
								End Site
								{
									OFFSET 0.000000 14.885353 0.000000
								}
							}
						}
					}
				}
				JOINT Backpack
				{
					OFFSET 0.000000 -2.471497 36.677502
					CHANNELS 3 Xrotation Yrotation Zrotation
					End Site
					{
						OFFSET 0.000000 20.427315 0.000000
					}
				}
				JOINT Hood
				{
					OFFSET 0.000000 18.754097 -10.431000
					CHANNELS 3 Xrotation Yrotation Zrotation
					JOINT Hood1
					{
						OFFSET 0.000000 -5.011002 -7.685901
						CHANNELS 3 Xrotation Yrotation Zrotation
						End Site
						{
							OFFSET 0.000000 9.175140 0.000000
						}
					}
				}
				JOINT LHoodieString
				{
					OFFSET 5.250500 16.397697 3.089900
					CHANNELS 3 Xrotation Yrotation Zrotation
					JOINT LHoodieString1
					{
						OFFSET 0.257700 -6.364304 3.694600
						CHANNELS 3 Xrotation Yrotation Zrotation
						JOINT LHoodieString2
						{
							OFFSET 0.000000 -9.643799 2.679100
							CHANNELS 3 Xrotation Yrotation Zrotation
							End Site
							{
								OFFSET 0.000000 10.009018 0.000000
							}
						}
					}
				}
				JOINT RHoodieString
				{
					OFFSET -5.250500 16.397697 3.089900
					CHANNELS 3 Xrotation Yrotation Zrotation
					JOINT RHoodieString1
					{
						OFFSET -0.257700 -6.364304 3.694600
						CHANNELS 3 Xrotation Yrotation Zrotation
						JOINT RHoodieString2
						{
							OFFSET 0.000000 -9.643799 2.679100
							CHANNELS 3 Xrotation Yrotation Zrotation
							End Site
							{
								OFFSET 0.000000 10.009018 0.000000
							}
						}
					}
				}
			}
			JOINT LBackpack_Strap
			{
				OFFSET 15.223200 -7.719803 -6.610900
				CHANNELS 3 Xrotation Yrotation Zrotation
				End Site
				{
					OFFSET 0.000000 16.040596 0.000000
				}
			}
			JOINT RBackpack_Strap
			{
				OFFSET -15.223000 -7.719803 -6.610900
				CHANNELS 3 Xrotation Yrotation Zrotation
				End Site
				{
					OFFSET 0.000000 16.040596 0.000000
				}
			}
		}
	}
	JOINT BoyFacialAnim_Joint
	{
		OFFSET 1.000000 -82.208099 -1.550900
		CHANNELS 3 Xrotation Yrotation Zrotation
		End Site
		{
			OFFSET 0.000000 30.012791 0.000000
		}
	}
}
MOTION
Frames: 5
Frame Time: 0.033333
-1.569866 80.862442 -5.196865 -3.256521 3.880651 -0.052434 0.000000 0.000000 0.000000 -12.297648 7.306882 6.050063 25.112558 3.062822 2.297564 -8.962458 5.065957 -6.410995 -0.000000 0.000000 0.000000 -0.000000 0.000000 0.000000 -0.000000 0.000000 -0.000001 -11.031948 -14.829770 -3.057951 25.902794 1.505058 -2.069216 -11.866110 -6.777562 1.332397 0.000000 -0.000000 0.000000 0.000000 -0.000000 0.000000 -0.000001 0.000000 -0.000000 0.468650 -3.563291 6.565837 3.868269 -0.549566 -0.774387 3.852327 -0.597410 -0.799002 12.544039 -1.131306 1.087985 -0.331955 -6.812812 3.384546 0.000001 0.000001 -0.000000 0.000001 0.000001 -0.000000 0.000001 0.000001 -0.000000 1.366765 -2.212920 -5.656521 14.897428 -59.864204 -53.184306 -0.000012 -5.746574 0.000005 -0.628371 -11.686989 -2.958802 9.969973 24.318059 -0.676383 1.208241 -0.207896 -1.051377 -0.000000 -0.000002 -0.000001 0.523245 3.909990 -8.634648 1.001887 3.581849 -31.244779 -0.000001 -0.000000 -0.000002 0.553571 4.036666 -8.814610 0.486532 2.546735 -21.627068 -0.000001 -0.000000 0.000000 0.592824 4.195576 -9.075987 0.096677 1.152190 -9.593435 -0.000000 -0.000000 0.000001 1.266996 8.325812 -8.834891 -0.018121 -4.056671 -0.491020 0.000000 0.000001 -0.000000 0.000000 -0.000001 0.000000 5.925324 15.543783 -0.864574 -8.003200 23.816222 46.887374 -0.000067 75.833726 0.000087 37.671560 13.436902 -43.511915 9.864439 -7.326741 11.876653 1.571725 0.187010 1.723080 0.000001 0.000004 0.000001 5.633896 15.838773 -20.538792 2.492160 -5.336563 50.040189 -0.000003 -0.000002 0.000001 1.014401 12.914082 -3.870280 1.236451 -3.963015 34.643665 0.000000 0.000003 0.000000 -2.441456 7.762221 16.319072 0.247795 -1.843279 15.311846 0.000000 0.000000 0.000004 -3.204514 3.223036 32.159474 0.000001 0.000005 0.000004 0.000000 -0.000001 -0.000000 0.000002 -0.000001 -0.000001 0.000000 0.000000 0.000000 0.000000 0.000000 0.000000 0.000000 0.000000 0.000000 0.000000 0.000000 0.000000 0.000000 0.000000 -0.000000 -0.000000 0.000000 -0.000000 0.000000 0.000000 0.000000 0.000000 0.000000 -0.000000 -0.000000 0.000000 -0.000000 0.000000 0.000000 -0.000000 0.000000 0.000000 -0.000000 0.000000 0.000000 0.000000 
-1.571415 80.922089 -5.141498 -3.346257 3.753764 0.025445 0.000000 0.000000 0.000000 -11.864891 7.259828 5.957787 24.637172 3.264607 2.226255 -8.795578 5.060047 -6.419300 0.000000 0.000000 0.000000 0.000000 0.000000 0.000000 -0.000001 0.000000 0.000000 -10.755685 -14.786960 -3.094922 25.578647 1.456400 -2.087359 -11.740624 -6.557104 1.382353 -0.000000 0.000000 0.000000 -0.000000 0.000000 0.000000 -0.000001 -0.000000 -0.000000 0.443394 -3.684612 6.657347 3.858454 -0.559558 -0.530680 3.843793 -0.608803 -0.555989 12.759905 -1.190982 0.542923 -0.041444 -7.089974 3.437300 0.000001 0.000000 -0.000000 0.000001 0.000000 -0.000000 0.000001 0.000000 -0.000000 1.368938 -2.191649 -6.151877 15.156431 -59.809371 -53.104892 0.000002 -5.766745 0.000008 -0.967209 -11.828296 -3.068436 10.135546 24.351009 -0.898847 1.209134 -0.205241 -1.051080 -0.000000 -0.000001 -0.000001 0.420298 3.252801 -8.643204 1.100171 3.738725 -32.784362 -0.000002 -0.000001 -0.000004 0.485427 3.575681 -8.952376 0.534949 2.665565 -22.692265 -0.000001 -0.000000 -0.000002 0.573842 3.988807 -9.376900 0.106431 1.208315 -10.065785 0.000001 0.000000 -0.000004 1.321139 8.316854 -9.270273 -0.018115 -4.056693 -0.491013 0.000002 -0.000000 0.000003 -0.000001 0.000001 0.000001 5.793524 15.174365 -0.857550 -5.100773 26.236080 46.253279 -0.000011 78.119278 0.000025 39.420765 12.473621 -45.759494 9.665620 -6.510340 12.212226 1.571725 0.187012 1.723076 0.000001 0.000002 -0.000002 5.830107 16.581100 -20.187777 2.484778 -5.330392 49.960665 0.000000 0.000000 0.000002 1.014940 13.505902 -3.627936 1.234016 -3.959514 34.608497 0.000002 0.000001 0.000000 -2.548097 8.122536 16.379152 0.247326 -1.841528 15.297387 0.000000 0.000000 0.000000 -3.296039 3.404467 32.056110 -0.000000 0.000029 0.000035 0.000000 0.000003 0.000001 -0.000002 -0.000004 -0.000003 0.000000 0.000000 0.000000 0.000000 0.000000 0.000000 0.000000 0.000000 0.000000 0.000000 0.000000 0.000000 0.000000 0.000000 0.000000 -0.000000 0.000000 0.000000 0.000000 0.000000 0.000000 0.000000 0.000000 0.000000 -0.000000 0.000000 0.000000 -0.000000 -0.000000 0.000000 -0.000000 -0.000000 0.000000 0.000000 0.000000 0.000000 
-1.578691 80.973900 -5.087850 -3.427945 3.641460 0.094439 -0.000000 -0.000000 0.000000 -11.479136 7.256015 5.868962 24.214948 3.329216 2.188705 -8.646371 5.166471 -6.416799 0.000000 -0.000002 -0.000000 0.000000 -0.000002 -0.000000 0.000001 0.000002 0.000000 -10.505776 -14.741015 -3.152641 25.297631 1.485360 -2.065052 -11.642136 -6.316588 1.400130 0.000000 -0.000002 0.000000 0.000000 -0.000002 0.000000 0.000000 0.000001 -0.000000 0.408271 -3.762558 6.786409 3.855958 -0.563403 -0.350773 3.842281 -0.614513 -0.376460 12.972480 -1.253063 0.082725 0.190128 -7.340821 3.500397 0.000002 -0.000001 0.000000 0.000002 -0.000001 0.000000 0.000002 -0.000001 0.000000 1.370207 -2.177516 -6.549804 15.361801 -59.801626 -53.075368 0.000008 -5.805202 0.000006 -1.318645 -11.918637 -3.149955 10.245613 24.362778 -1.053071 1.210005 -0.203139 -1.050541 0.000000 -0.000000 0.000000 0.310084 2.550487 -8.618648 1.211089 3.905187 -34.448329 -0.000001 0.000000 -0.000002 0.411787 3.090260 -9.101747 0.589678 2.792674 -23.841844 0.000002 -0.000000 0.000000 0.555206 3.779481 -9.745036 0.117443 1.268747 -10.575140 -0.000002 -0.000002 0.000001 1.391562 8.320520 -9.818973 -0.018112 -4.056679 -0.491002 0.000000 -0.000000 0.000002 0.000001 -0.000001 0.000001 5.748068 15.043995 -0.785048 -2.340275 28.628690 45.470478 0.000233 80.098878 -0.000204 40.945447 11.533139 -47.892245 9.588964 -5.745202 12.715294 1.571723 0.187010 1.723079 0.000000 0.000006 -0.000003 5.871705 17.253621 -19.429311 2.472788 -5.320338 49.831366 0.000000 0.000001 0.000005 0.916930 13.988717 -3.021848 1.228642 -3.951722 34.530479 0.000000 0.000001 0.000002 -2.680554 8.360245 16.744062 0.246241 -1.837584 15.263593 0.000001 -0.000001 0.000000 -3.365242 3.474741 32.217220 0.000001 -0.000002 0.000002 0.000001 -0.000001 -0.000000 -0.000000 -0.000001 -0.000003 0.000000 0.000000 0.000000 0.000000 0.000000 0.000000 0.000000 0.000000 0.000000 0.000000 0.000000 0.000000 0.000000 0.000000 0.000000 0.000000 0.000000 0.000000 0.000000 0.000000 0.000000 0.000000 0.000000 0.000000 0.000000 0.000000 0.000000 -0.000000 -0.000000 0.000000 -0.000000 -0.000000 0.000000 -0.000000 -0.000000 0.000000 
-1.592673 81.010849 -5.039976 -3.486907 3.547141 0.162213 0.000000 0.000000 -0.000000 -11.183334 7.316024 5.784543 23.886500 3.303864 2.188778 -8.530699 5.312410 -6.416328 -0.000000 0.000002 0.000000 -0.000000 0.000002 0.000000 -0.000001 0.000000 0.000000 -10.331849 -14.693921 -3.226041 25.115618 1.580626 -2.017197 -11.592364 -6.159021 1.380033 -0.000000 -0.000002 -0.000000 -0.000000 -0.000002 -0.000000 -0.000001 0.000001 0.000000 0.346401 -3.793727 6.963295 3.868927 -0.561789 -0.275789 3.855602 -0.615250 -0.301584 13.163812 -1.307309 -0.213820 0.323222 -7.497834 3.543118 -0.000000 0.000000 -0.000001 -0.000000 0.000000 -0.000001 -0.000000 0.000000 -0.000001 1.367446 -2.159529 -6.758773 15.447040 -59.848727 -53.148359 -0.000004 -5.858064 -0.000006 -1.643484 -11.978659 -3.203686 10.291217 24.352934 -1.125487 1.210446 -0.203001 -1.049841 0.000000 0.000000 -0.000000 0.216117 1.946714 -8.563489 1.312219 4.048332 -35.906485 -0.000003 0.000001 -0.000005 0.348260 2.681961 -9.229636 0.639655 2.903006 -24.847627 0.000001 0.000001 -0.000001 0.541279 3.613965 -10.102479 0.127486 1.321499 -11.020380 0.000001 0.000000 -0.000002 1.464730 8.340451 -10.366214 -0.018107 -4.056677 -0.491002 -0.000001 0.000001 0.000002 -0.000002 0.000000 0.000001 5.802902 15.179027 -0.607010 0.233944 30.932998 44.551640 0.000280 81.805189 -0.000276 42.273212 10.544291 -49.979055 9.685503 -5.135872 13.384538 1.571729 0.187004 1.723079 0.000000 0.000003 0.000000 5.737408 17.763503 -18.339464 2.462376 -5.311571 49.719068 -0.000001 -0.000003 0.000001 0.724766 14.293197 -2.117008 1.223187 -3.943811 34.451317 0.000002 -0.000002 0.000001 -2.823401 8.439747 17.370498 0.245051 -1.833218 15.226425 0.000000 -0.000002 0.000004 -3.402417 3.422914 32.619737 0.000002 -0.000007 0.000048 -0.000002 0.000003 -0.000001 -0.000001 -0.000003 -0.000006 0.000001 -0.000000 0.000000 0.000001 -0.000000 0.000000 0.000001 -0.000000 0.000000 0.000001 -0.000000 0.000000 0.000001 -0.000000 0.000000 0.000000 0.000000 0.000000 0.000001 -0.000000 0.000000 0.000001 -0.000000 0.000000 0.000000 0.000000 0.000000 0.000000 0.000000 -0.000000 0.000000 0.000000 -0.000000 0.000000 0.000000 -0.000000 
-1.613916 81.031876 -4.999609 -3.517280 3.483745 0.232906 0.000000 -0.000000 -0.000000 -10.987127 7.415734 5.706593 23.653022 3.300044 2.224361 -8.448948 5.356303 -6.443764 -0.000000 0.000002 0.000000 -0.000000 0.000002 -0.000000 -0.000000 -0.000001 0.000000 -10.245805 -14.632161 -3.280018 25.044699 1.656344 -1.984726 -11.592913 -6.176841 1.343775 -0.000000 -0.000002 0.000000 -0.000000 -0.000002 0.000000 -0.000000 -0.000000 -0.000000 0.259799 -3.774761 7.184403 3.897834 -0.554888 -0.317974 3.884140 -0.611081 -0.343568 13.306674 -1.350504 -0.325590 0.373107 -7.542966 3.555606 0.000001 -0.000000 0.000000 0.000001 -0.000000 0.000000 0.000001 -0.000000 0.000000 1.360315 -2.134582 -6.741358 15.374884 -59.942669 -53.348944 -0.000018 -5.917311 0.000006 -1.874250 -12.057446 -3.230831 10.272573 24.325913 -1.113057 1.209979 -0.205816 -1.049226 -0.000001 0.000002 0.000000 0.153277 1.538642 -8.479315 1.389596 4.152837 -36.988609 -0.000001 -0.000001 -0.000002 0.306075 2.416535 -9.308521 0.677931 2.984179 -25.592855 0.000001 -0.000001 -0.000002 0.535484 3.519332 -10.385572 0.135214 1.360533 -11.350051 -0.000000 0.000001 -0.000002 1.528791 8.374543 -10.818090 -0.018115 -4.056657 -0.491028 -0.000000 -0.000000 0.000002 -0.000002 0.000000 -0.000001 5.960181 15.582477 -0.315405 2.592976 33.131284 43.508561 0.000002 83.255286 -0.000022 43.411712 9.359506 -52.093808 9.973948 -4.765525 14.172616 1.571724 0.187011 1.723078 -0.000002 0.000001 -0.000002 5.449595 18.029816 -17.073919 2.459482 -5.309134 49.687837 -0.000001 0.000002 0.000002 0.470697 14.370288 -1.046917 1.220799 -3.940319 34.416657 0.000000 0.000001 -0.000002 -2.951476 8.345993 18.163918 0.244411 -1.830839 15.206262 -0.000000 -0.000001 0.000000 -3.397124 3.253402 33.201386 -0.000000 -0.000002 -0.000009 -0.000000 0.000000 0.000000 0.000001 -0.000000 -0.000000 -0.000000 0.000000 -0.000001 -0.000000 0.000000 -0.000001 -0.000000 0.000000 -0.000001 -0.000000 0.000000 -0.000001 -0.000000 0.000000 -0.000001 -0.000001 -0.000000 -0.000001 -0.000000 0.000000 -0.000001 -0.000000 0.000000 -0.000001 -0.000001 -0.000000 -0.000001 -0.000000 -0.000000 0.000000 -0.000000 -0.000000 0.000000 0.000000 -0.000000 -0.000000 
